<svg width="300" height="300" viewBox="0 0 300 300" fill="none" xmlns="http://www.w3.org/2000/svg">
<g opacity="0.1">
<g clip-path="url(#clip0_2_4719)">
<path d="M74.9972 193.294C132.39 160.158 167.724 113.91 153.917 89.9965C140.111 66.0827 82.3921 73.5587 24.9991 106.695C-32.3939 139.83 -67.7277 186.078 -53.9211 209.992C-40.1145 233.906 17.6042 226.43 74.9972 193.294Z" fill="#F7E7CE"/>
<path d="M88.0261 112.885C134.732 129.885 177.955 128.941 184.566 110.778C191.177 92.614 158.673 64.1085 111.967 47.1088C65.2603 30.1091 22.0381 31.0526 15.4271 49.2162C8.8161 67.3797 41.3198 95.8852 88.0261 112.885Z" fill="#F7E7CE"/>
<path opacity="0.6" d="M199.993 55.998C203.307 55.998 205.993 53.3118 205.993 49.998C205.993 46.6843 203.307 43.998 199.993 43.998C196.679 43.998 193.993 46.6843 193.993 49.998C193.993 53.3118 196.679 55.998 199.993 55.998Z" fill="#F7E7CE"/>
</g>
</g>
<defs>
<clipPath id="clip0_2_4719">
<rect width="299.989" height="299.989" fill="white"/>
</clipPath>
</defs>
</svg>
