<svg width="500" height="500" viewBox="0 0 500 500" fill="none" xmlns="http://www.w3.org/2000/svg">
<g opacity="0.1">
<g clip-path="url(#clip0_2_3421)">
<path d="M389.996 219.28C476.088 169.575 527.971 98.2624 505.879 59.9994C483.788 21.7364 396.089 31.012 309.997 80.7172C223.905 130.422 172.022 201.735 194.113 239.998C216.205 278.261 303.904 268.985 389.996 219.28Z" fill="#556B2F"/>
<path d="M407.055 248.294C471.07 265.447 528.759 257.729 535.906 231.056C543.053 204.383 496.952 168.855 432.937 151.702C368.921 134.549 311.233 142.267 304.086 168.94C296.939 195.613 343.04 231.141 407.055 248.294Z" fill="#556B2F"/>
<path d="M320.518 306.378C398.364 278.045 452.283 229.833 440.949 198.695C429.616 167.557 357.322 165.283 279.476 193.616C201.63 221.95 147.711 270.162 159.045 301.3C170.378 332.438 242.672 334.712 320.518 306.378Z" fill="#556B2F"/>
<path d="M354.285 130.64C396.592 166.14 442.4 181.2 456.6 164.277C470.8 147.354 448.015 104.857 405.707 69.3575C363.4 33.8577 317.593 18.7981 303.393 35.7209C289.193 52.6437 311.978 95.1406 354.285 130.64Z" fill="#6B8A3D"/>
<path opacity="0.5" d="M449.996 307.997C454.414 307.997 457.996 304.415 457.996 299.997C457.996 295.579 454.414 291.997 449.996 291.997C445.577 291.997 441.996 295.579 441.996 299.997C441.996 304.415 445.577 307.997 449.996 307.997Z" fill="#556B2F"/>
<path opacity="0.4" d="M279.997 124.999C282.759 124.999 284.997 122.76 284.997 119.999C284.997 117.237 282.759 114.999 279.997 114.999C277.236 114.999 274.997 117.237 274.997 119.999C274.997 122.76 277.236 124.999 279.997 124.999Z" fill="#556B2F"/>
</g>
</g>
<defs>
<clipPath id="clip0_2_3421">
<rect width="499.995" height="499.995" fill="white"/>
</clipPath>
</defs>
</svg>
