<svg width="400" height="400" viewBox="0 0 400 400" fill="none" xmlns="http://www.w3.org/2000/svg">
<g opacity="0.1">
<g clip-path="url(#clip0_2_3429)">
<path d="M56.0575 365.771C139.092 395.993 217.124 391.044 230.346 354.716C243.568 318.388 186.974 264.439 103.939 234.217C20.9045 203.995 -57.1272 208.944 -70.3494 245.272C-83.5716 281.6 -26.9773 335.549 56.0575 365.771Z" fill="#556B2F"/>
<path d="M62.9397 298.29C126.954 281.138 173.055 245.61 165.908 218.937C158.761 192.265 101.073 184.547 37.0583 201.7C-26.9563 218.852 -73.0567 254.38 -65.9098 281.053C-58.7628 307.725 -1.07495 315.443 62.9397 298.29Z" fill="#556B2F"/>
<path opacity="0.4" d="M199.996 385.992C203.31 385.992 205.996 383.306 205.996 379.992C205.996 376.679 203.31 373.992 199.996 373.992C196.682 373.992 193.996 376.679 193.996 379.992C193.996 383.306 196.682 385.992 199.996 385.992Z" fill="#556B2F"/>
</g>
</g>
<defs>
<clipPath id="clip0_2_3429">
<rect width="399.992" height="399.992" fill="white"/>
</clipPath>
</defs>
</svg>
